<?xml version="1.0" encoding="UTF-8"?>
<svg fill="#fff" width="64mm" height="36.571mm" version="1.1" viewBox="0 0 64 36.571" xmlns="http://www.w3.org/2000/svg">
  <path transform="matrix(.45714 0 0 .45714 -1.2111e-7 -4.7177e-6)" d="m80 80v-80h20l22.25 44.5-2.25 0.5v-45h20v80h-20l-22.25-44.5 2.25-0.5v45z"/>
  <path transform="matrix(.45714 0 0 .45714 -1.2111e-7 -4.7177e-6)" d="m16 64h32v-16h-32zm0-32h32v-16h-32zm-16 48v-80h48c4.4 0 8.1667 1.5667 11.3 4.7s4.7 6.9 4.7 11.3v12c0 3.3333-1.1667 6.1667-3.5 8.5s-5.1667 3.5-8.5 3.5c3.3333 0 6.1667 1.1667 8.5 3.5s3.5 5.1667 3.5 8.5v12c0 4.4-1.5667 8.1667-4.7 11.3s-6.9 4.7-11.3 4.7z"/>
</svg>

